<?xml version="1.0" standalone="no"?>
<!DOCTYPE svg PUBLIC "-//W3C//DTD SVG 20010904//EN"
 "http://www.w3.org/TR/2001/REC-SVG-20010904/DTD/svg10.dtd">
<svg version="1.0" xmlns="http://www.w3.org/2000/svg"
 width="453.000000pt" height="174.000000pt" viewBox="0 0 453.000000 174.000000"
 preserveAspectRatio="xMidYMid meet">

<g transform="translate(0.000000,174.000000) scale(0.100000,-0.100000)"
fill="#000000" stroke="none">
<path d="M828 1713 c6 -2 18 -2 25 0 6 3 1 5 -13 5 -14 0 -19 -2 -12 -5z"/>
<path d="M908 1703 c6 -2 18 -2 25 0 6 3 1 5 -13 5 -14 0 -19 -2 -12 -5z"/>
<path d="M650 1682 c-30 -9 -56 -23 -58 -31 -2 -11 3 -10 24 3 14 10 37 16 50
13 14 -2 22 -2 19 1 -3 3 5 12 17 19 30 16 15 15 -52 -5z"/>
<path d="M971 1695 c3 -2 33 -9 68 -13 34 -5 58 -6 54 -2 -9 8 -130 23 -122
15z"/>
<path d="M1110 1666 c0 -2 8 -10 18 -17 15 -13 16 -12 3 4 -13 16 -21 21 -21
13z"/>
<path d="M641 1634 c0 -11 3 -14 6 -6 3 7 2 16 -1 19 -3 4 -6 -2 -5 -13z"/>
<path d="M1082 1630 c0 -14 2 -19 5 -12 2 6 2 18 0 25 -3 6 -5 1 -5 -13z"/>
<path d="M554 1624 c-18 -14 -18 -15 4 -4 12 6 22 13 22 15 0 8 -5 6 -26 -11z"/>
<path d="M1165 1620 c10 -11 20 -20 23 -20 3 0 -3 9 -13 20 -10 11 -20 20 -23
20 -3 0 3 -9 13 -20z"/>
<path d="M504 1594 c-18 -14 -18 -15 4 -4 12 6 22 13 22 15 0 8 -5 6 -26 -11z"/>
<path d="M840 1585 c25 -13 50 -24 55 -24 6 0 -10 11 -35 24 -25 13 -49 24
-55 24 -5 0 10 -11 35 -24z"/>
<path d="M1215 1580 c10 -11 20 -20 23 -20 3 0 -3 9 -13 20 -10 11 -20 20 -23
20 -3 0 3 -9 13 -20z"/>
<path d="M289 1563 c-13 -14 -19 -23 -12 -20 6 4 14 1 16 -5 3 -7 6 -3 6 9 1
12 9 27 19 32 9 6 12 11 6 11 -6 0 -21 -12 -35 -27z"/>
<path d="M1072 1560 c0 -14 2 -19 5 -12 2 6 2 18 0 25 -3 6 -5 1 -5 -13z"/>
<path d="M1265 1540 c10 -11 20 -20 23 -20 3 0 -3 9 -13 20 -10 11 -20 20 -23
20 -3 0 3 -9 13 -20z"/>
<path d="M244 1508 l-19 -23 23 19 c21 18 27 26 19 26 -2 0 -12 -10 -23 -22z"/>
<path d="M1315 1500 c10 -11 20 -20 23 -20 3 0 -3 9 -13 20 -10 11 -20 20 -23
20 -3 0 3 -9 13 -20z"/>
<path d="M611 1494 c0 -11 3 -14 6 -6 3 7 2 16 -1 19 -3 4 -6 -2 -5 -13z"/>
<path d="M1052 1490 c-9 -15 -9 -20 0 -20 7 0 23 -12 36 -27 l23 -28 -16 27
c-13 20 -13 27 -3 31 9 4 7 6 -4 6 -9 1 -18 8 -20 16 -2 13 -6 12 -16 -5z"/>
<path d="M209 1463 c-13 -16 -12 -17 4 -4 9 7 17 15 17 17 0 8 -8 3 -21 -13z"/>
<path d="M271 1470 c-1 -8 -29 -44 -63 -80 -59 -61 -60 -62 -7 -12 30 29 57
51 60 48 10 -10 25 21 18 39 -5 13 -8 15 -8 5z"/>
<path d="M1350 1476 c0 -2 8 -10 18 -17 15 -13 16 -12 3 4 -13 16 -21 21 -21
13z"/>
<path d="M1128 1463 c7 -3 16 -2 19 1 4 3 -2 6 -13 5 -11 0 -14 -3 -6 -6z"/>
<path d="M601 1444 c0 -11 3 -14 6 -6 3 7 2 16 -1 19 -3 4 -6 -2 -5 -13z"/>
<path d="M1218 1443 c7 -3 16 -2 19 1 4 3 -2 6 -13 5 -11 0 -14 -3 -6 -6z"/>
<path d="M179 1423 c-13 -16 -12 -17 4 -4 16 13 21 21 13 21 -2 0 -10 -8 -17
-17z"/>
<path d="M1268 1433 c7 -3 16 -2 19 1 4 3 -2 6 -13 5 -11 0 -14 -3 -6 -6z"/>
<path d="M1408 1428 c7 -9 9 -18 5 -20 -4 -3 -3 -4 3 -2 17 4 33 -16 27 -35
-4 -14 -3 -14 6 -1 15 22 14 24 -21 50 -18 13 -27 17 -20 8z"/>
<path d="M1358 1413 c7 -3 16 -2 19 1 4 3 -2 6 -13 5 -11 0 -14 -3 -6 -6z"/>
<path d="M251 1394 c0 -11 3 -14 6 -6 3 7 2 16 -1 19 -3 4 -6 -2 -5 -13z"/>
<path d="M591 1394 c0 -11 3 -14 6 -6 3 7 2 16 -1 19 -3 4 -6 -2 -5 -13z"/>
<path d="M1130 1380 c12 -16 24 -30 26 -30 3 0 -4 14 -16 30 -12 17 -24 30
-26 30 -3 0 4 -13 16 -30z"/>
<path d="M144 1378 l-19 -23 23 19 c21 18 27 26 19 26 -2 0 -12 -10 -23 -22z"/>
<path d="M241 1354 c0 -11 3 -14 6 -6 3 7 2 16 -1 19 -3 4 -6 -2 -5 -13z"/>
<path d="M580 1354 c-1 -5 -1 -120 0 -255 l1 -246 -28 -34 c-26 -32 -26 -33
-2 -11 14 12 28 20 31 16 4 -3 12 4 18 16 9 16 9 20 1 15 -9 -5 -12 58 -10
245 0 138 -2 254 -5 257 -3 4 -6 2 -6 -3z"/>
<path d="M109 1333 c-13 -16 -12 -17 4 -4 16 13 21 21 13 21 -2 0 -10 -8 -17
-17z"/>
<path d="M1431 1334 c0 -11 3 -14 6 -6 3 7 2 16 -1 19 -3 4 -6 -2 -5 -13z"/>
<path d="M1180 1310 c12 -16 24 -30 26 -30 3 0 -4 14 -16 30 -12 17 -24 30
-26 30 -3 0 4 -13 16 -30z"/>
<path d="M231 1314 c0 -11 3 -14 6 -6 3 7 2 16 -1 19 -3 4 -6 -2 -5 -13z"/>
<path d="M539 1313 c-13 -16 -12 -17 4 -4 9 7 17 15 17 17 0 8 -8 3 -21 -13z"/>
<path d="M74 1288 l-19 -23 23 19 c21 18 27 26 19 26 -2 0 -12 -10 -23 -22z"/>
<path d="M221 1274 c0 -11 3 -14 6 -6 3 7 2 16 -1 19 -3 4 -6 -2 -5 -13z"/>
<path d="M685 1275 c11 -9 29 -21 40 -26 l20 -10 -20 16 c-11 9 -29 21 -40 26
l-20 10 20 -16z"/>
<path d="M469 1263 c-13 -16 -12 -17 4 -4 16 13 21 21 13 21 -2 0 -10 -8 -17
-17z"/>
<path d="M26 1225 c-26 -34 -27 -37 -23 -162 l3 -128 2 130 2 129 32 33 c18
18 27 33 21 33 -6 0 -23 -16 -37 -35z"/>
<path d="M211 1234 c0 -11 3 -14 6 -6 3 7 2 16 -1 19 -3 4 -6 -2 -5 -13z"/>
<path d="M415 1224 l-30 -26 33 22 c17 12 32 23 32 26 0 7 -4 5 -35 -22z"/>
<path d="M1230 1236 c0 -2 8 -10 18 -17 15 -13 16 -12 3 4 -13 16 -21 21 -21
13z"/>
<path d="M201 1194 c0 -11 3 -14 6 -6 3 7 2 16 -1 19 -3 4 -6 -2 -5 -13z"/>
<path d="M345 1174 l-30 -26 33 22 c17 12 32 23 32 26 0 7 -4 5 -35 -22z"/>
<path d="M55 1140 c21 -22 41 -40 44 -40 3 0 -13 18 -34 40 -21 22 -41 40 -44
40 -3 0 13 -18 34 -40z"/>
<path d="M191 1154 c0 -11 3 -14 6 -6 3 7 2 16 -1 19 -3 4 -6 -2 -5 -13z"/>
<path d="M1280 1166 c0 -2 8 -10 18 -17 15 -13 16 -12 3 4 -13 16 -21 21 -21
13z"/>
<path d="M289 1133 c-13 -16 -12 -17 4 -4 16 13 21 21 13 21 -2 0 -10 -8 -17
-17z"/>
<path d="M924 1116 c20 -20 32 -24 39 -17 6 6 8 12 4 12 -18 3 -24 6 -47 18
-23 13 -23 12 4 -13z"/>
<path d="M181 1114 c0 -11 3 -14 6 -6 3 7 2 16 -1 19 -3 4 -6 -2 -5 -13z"/>
<path d="M1840 940 l0 -182 90 4 c81 4 93 7 127 34 49 39 73 87 73 144 0 57
-24 105 -73 144 -34 27 -46 30 -127 34 l-90 4 0 -182z m160 95 c16 -8 34 -24
40 -34 13 -25 13 -97 0 -122 -14 -25 -62 -49 -100 -49 l-30 0 0 110 0 110 30
0 c17 0 44 -7 60 -15z"/>
<path d="M2174 1106 c-15 -40 21 -80 54 -60 37 24 21 74 -25 74 -13 0 -26 -6
-29 -14z"/>
<path d="M2604 1106 c-15 -40 21 -80 54 -60 37 24 21 74 -25 74 -13 0 -26 -6
-29 -14z"/>
<path d="M2750 1093 c-27 -24 -33 -36 -33 -72 0 -53 27 -82 97 -108 57 -21 76
-44 57 -67 -19 -22 -61 -20 -87 5 -21 20 -24 20 -53 4 -27 -13 -30 -18 -21
-36 22 -40 70 -60 132 -56 92 5 136 65 103 143 -11 27 -27 40 -82 67 -71 34
-88 58 -54 77 16 8 28 7 52 -6 30 -15 33 -15 53 5 l20 21 -21 22 c-15 15 -38
23 -76 26 -49 4 -57 1 -87 -25z"/>
<path d="M3677 1114 c-13 -13 -7 -51 9 -65 23 -19 49 1 49 37 0 24 -5 30 -25
32 -14 2 -29 0 -33 -4z"/>
<path d="M219 1083 c-13 -16 -12 -17 4 -4 16 13 21 21 13 21 -2 0 -10 -8 -17
-17z"/>
<path d="M1023 1093 c9 -2 25 -2 35 0 9 3 1 5 -18 5 -19 0 -27 -2 -17 -5z"/>
<path d="M171 1071 c-1 -24 -1 -24 -23 -5 l-23 19 19 -22 c10 -12 16 -29 12
-38 -3 -9 -2 -14 3 -10 5 3 11 2 14 -2 2 -5 2 -2 1 5 -2 6 2 12 8 12 6 0 8 3
5 7 -4 3 -1 13 6 21 8 11 8 14 0 9 -7 -4 -13 0 -16 10 -3 13 -5 11 -6 -6z"/>
<path d="M1123 1083 c9 -2 25 -2 35 0 9 3 1 5 -18 5 -19 0 -27 -2 -17 -5z"/>
<path d="M1357 1083 c-5 -7 -18 -14 -30 -14 -20 -1 -20 -2 -2 -6 11 -3 25 -10
30 -18 8 -10 13 -10 23 1 7 8 8 14 3 14 -5 0 -11 8 -13 18 -3 12 -6 14 -11 5z"/>
<path d="M1223 1073 c9 -2 25 -2 35 0 9 3 1 5 -18 5 -19 0 -27 -2 -17 -5z"/>
<path d="M879 1053 c-13 -16 -12 -17 4 -4 9 7 17 15 17 17 0 8 -8 3 -21 -13z"/>
<path d="M809 1003 c-13 -16 -12 -17 4 -4 9 7 17 15 17 17 0 8 -8 3 -21 -13z"/>
<path d="M1299 983 c-13 -16 -12 -17 4 -4 16 13 21 21 13 21 -2 0 -10 -8 -17
-17z"/>
<path d="M1371 984 c0 -11 3 -14 6 -6 3 7 2 16 -1 19 -3 4 -6 -2 -5 -13z"/>
<path d="M2170 880 l0 -120 40 0 40 0 0 120 0 120 -40 0 -40 0 0 -120z"/>
<path d="M2332 984 c-29 -20 -52 -66 -52 -104 0 -38 23 -84 52 -104 26 -18 90
-21 119 -6 17 10 19 7 19 -20 0 -34 -30 -70 -60 -70 -11 0 -29 9 -40 20 -16
16 -24 18 -50 9 -37 -13 -38 -28 -5 -59 38 -36 139 -41 179 -9 47 37 56 74 56
224 l0 135 -40 0 c-22 0 -40 -5 -40 -10 0 -7 -6 -7 -19 0 -29 15 -93 12 -119
-6z m116 -60 c51 -36 8 -117 -51 -95 -45 17 -47 83 -4 101 30 12 30 12 55 -6z"/>
<path d="M2600 880 l0 -120 40 0 40 0 0 120 0 120 -40 0 -40 0 0 -120z"/>
<path d="M3035 991 c-35 -15 -57 -49 -62 -94 -10 -82 42 -137 127 -137 60 0
120 37 120 74 0 12 -66 5 -84 -9 -27 -20 -52 -19 -76 5 -35 35 -24 40 74 40
l94 0 -9 38 c-12 56 -58 92 -117 91 -26 0 -56 -4 -67 -8z m101 -58 c17 -17 16
-18 -30 -21 -56 -4 -69 4 -42 24 26 19 51 18 72 -3z"/>
<path d="M3260 880 l0 -120 35 0 35 0 0 65 c0 57 3 69 25 90 44 44 59 35 98
-62 34 -85 36 -88 69 -91 l35 -3 46 113 c26 62 47 117 47 121 0 5 -17 7 -37 5
-36 -3 -37 -4 -61 -76 -13 -40 -26 -71 -28 -69 -2 2 -15 35 -28 73 l-23 69
-47 3 c-31 2 -56 -2 -72 -13 -21 -14 -24 -14 -24 0 0 11 -10 15 -35 15 l-35 0
0 -120z"/>
<path d="M3670 880 l0 -120 35 0 35 0 0 120 0 120 -35 0 -35 0 0 -120z"/>
<path d="M3838 984 c-53 -28 -73 -105 -43 -164 41 -80 189 -80 230 0 20 39 20
40 -20 40 -22 0 -43 -8 -55 -20 -11 -11 -29 -20 -40 -20 -26 0 -60 34 -60 60
0 11 9 29 20 40 11 11 29 20 40 20 11 0 29 -9 40 -20 18 -18 90 -30 90 -15 0
20 -35 67 -60 80 -37 19 -107 19 -142 -1z"/>
<path d="M4103 980 c-43 -26 -61 -84 -44 -140 15 -51 59 -80 119 -80 61 0 122
37 122 74 0 13 -68 5 -80 -9 -25 -30 -90 -8 -90 31 0 11 19 14 90 14 100 0
102 2 76 65 -26 62 -126 86 -193 45z m113 -44 c27 -20 14 -28 -42 -24 -46 3
-47 4 -30 21 21 21 46 22 72 3z"/>
<path d="M4356 979 c-21 -16 -26 -28 -24 -52 3 -30 7 -34 84 -84 16 -10 17
-13 4 -22 -10 -7 -21 -6 -35 3 -14 9 -26 10 -42 3 -30 -13 -29 -21 3 -46 38
-30 103 -28 132 2 42 45 25 90 -48 130 -25 14 -30 21 -21 30 9 9 16 9 30 0 16
-10 22 -8 37 8 18 20 18 21 -1 35 -28 21 -88 17 -119 -7z"/>
<path d="M755 964 l-30 -26 33 22 c17 12 32 23 32 26 0 7 -4 5 -35 -22z"/>
<path d="M181 964 c0 -11 3 -14 6 -6 3 7 2 16 -1 19 -3 4 -6 -2 -5 -13z"/>
<path d="M1599 971 c10 -7 11 -13 1 -31 -6 -12 -9 -24 -6 -28 3 -3 6 0 6 7 0
7 5 9 10 6 6 -4 10 7 10 24 0 23 -5 31 -17 31 -14 0 -15 -2 -4 -9z"/>
<path d="M1269 943 c-13 -16 -12 -17 4 -4 9 7 17 15 17 17 0 8 -8 3 -21 -13z"/>
<path d="M1381 934 c0 -11 3 -14 6 -6 3 7 2 16 -1 19 -3 4 -6 -2 -5 -13z"/>
<path d="M191 924 c0 -11 3 -14 6 -6 3 7 2 16 -1 19 -3 4 -6 -2 -5 -13z"/>
<path d="M685 914 l-30 -26 33 22 c17 12 32 23 32 26 0 7 -4 5 -35 -22z"/>
<path d="M1230 890 c-12 -16 -19 -30 -16 -30 2 0 14 14 26 30 12 17 19 30 16
30 -2 0 -14 -13 -26 -30z"/>
<path d="M470 890 c19 -11 40 -19 45 -19 6 0 -6 8 -25 19 -19 11 -39 19 -45
19 -5 0 6 -8 25 -19z"/>
<path d="M1391 884 c0 -11 3 -14 6 -6 3 7 2 16 -1 19 -3 4 -6 -2 -5 -13z"/>
<path d="M629 873 c-13 -16 -12 -17 4 -4 9 7 17 15 17 17 0 8 -8 3 -21 -13z"/>
<path d="M1603 820 c0 -25 2 -35 4 -22 2 12 2 32 0 45 -2 12 -4 2 -4 -23z"/>
<path d="M1189 833 c-13 -16 -12 -17 4 -4 9 7 17 15 17 17 0 8 -8 3 -21 -13z"/>
<path d="M1401 834 c0 -11 3 -14 6 -6 3 7 2 16 -1 19 -3 4 -6 -2 -5 -13z"/>
<path d="M1031 804 c0 -11 3 -14 6 -6 3 7 2 16 -1 19 -3 4 -6 -2 -5 -13z"/>
<path d="M221 794 c0 -11 3 -14 6 -6 3 7 2 16 -1 19 -3 4 -6 -2 -5 -13z"/>
<path d="M1159 793 c-13 -16 -12 -17 4 -4 9 7 17 15 17 17 0 8 -8 3 -21 -13z"/>
<path d="M591 784 c0 -11 3 -14 6 -6 3 7 2 16 -1 19 -3 4 -6 -2 -5 -13z"/>
<path d="M494 768 l-19 -23 23 19 c21 18 27 26 19 26 -2 0 -12 -10 -23 -22z"/>
<path d="M1411 774 c0 -11 3 -14 6 -6 3 7 2 16 -1 19 -3 4 -6 -2 -5 -13z"/>
<path d="M231 754 c0 -11 3 -14 6 -6 3 7 2 16 -1 19 -3 4 -6 -2 -5 -13z"/>
<path d="M6 714 c3 -41 32 -104 47 -104 5 0 6 -4 3 -8 -3 -5 1 -9 9 -9 9 0 6
10 -11 33 -18 23 -21 33 -12 37 8 3 6 6 -6 6 -13 1 -17 6 -13 21 3 11 1 20 -3
20 -5 0 -11 10 -13 23 -3 12 -3 4 -1 -19z"/>
<path d="M444 728 l-19 -23 23 19 c21 18 27 26 19 26 -2 0 -12 -10 -23 -22z"/>
<path d="M601 724 c0 -11 3 -14 6 -6 3 7 2 16 -1 19 -3 4 -6 -2 -5 -13z"/>
<path d="M1109 723 c-13 -16 -12 -17 4 -4 16 13 21 21 13 21 -2 0 -10 -8 -17
-17z"/>
<path d="M1421 724 c0 -11 3 -14 6 -6 3 7 2 16 -1 19 -3 4 -6 -2 -5 -13z"/>
<path d="M1593 675 c0 -27 2 -38 4 -22 2 15 2 37 0 50 -2 12 -4 0 -4 -28z"/>
<path d="M384 678 l-19 -23 23 19 c21 18 27 26 19 26 -2 0 -12 -10 -23 -22z"/>
<path d="M1085 690 c-3 -5 -16 -10 -28 -10 -20 -1 -20 -2 -4 -11 10 -6 18 -23
18 -42 l2 -32 4 30 c3 16 10 33 16 37 9 6 8 8 -2 8 -11 0 -11 3 -1 15 7 8 10
15 7 15 -3 0 -9 -4 -12 -10z"/>
<path d="M611 674 c0 -11 3 -14 6 -6 3 7 2 16 -1 19 -3 4 -6 -2 -5 -13z"/>
<path d="M1431 674 c0 -11 3 -14 6 -6 3 7 2 16 -1 19 -3 4 -6 -2 -5 -13z"/>
<path d="M334 638 l-19 -23 23 19 c21 18 27 26 19 26 -2 0 -12 -10 -23 -22z"/>
<path d="M1128 653 c7 -3 16 -2 19 1 4 3 -2 6 -13 5 -11 0 -14 -3 -6 -6z"/>
<path d="M1168 643 c7 -3 16 -2 19 1 4 3 -2 6 -13 5 -11 0 -14 -3 -6 -6z"/>
<path d="M261 624 c0 -11 3 -14 6 -6 3 7 2 16 -1 19 -3 4 -6 -2 -5 -13z"/>
<path d="M621 624 c0 -11 3 -14 6 -6 3 7 2 16 -1 19 -3 4 -6 -2 -5 -13z"/>
<path d="M1218 633 c7 -3 16 -2 19 1 4 3 -2 6 -13 5 -11 0 -14 -3 -6 -6z"/>
<path d="M1446 615 c2 -11 -9 -33 -24 -50 -15 -16 -18 -22 -6 -12 11 9 23 15
26 12 3 -4 11 8 16 25 6 17 7 28 2 25 -5 -3 -10 0 -13 7 -2 7 -3 4 -1 -7z"/>
<path d="M999 613 c-13 -16 -12 -17 4 -4 16 13 21 21 13 21 -2 0 -10 -8 -17
-17z"/>
<path d="M1308 613 c7 -3 16 -2 19 1 4 3 -2 6 -13 5 -11 0 -14 -3 -6 -6z"/>
<path d="M1568 613 c7 -3 16 -2 19 1 4 3 -2 6 -13 5 -11 0 -14 -3 -6 -6z"/>
<path d="M282 601 c-8 -5 -12 -16 -10 -25 2 -12 6 -10 15 9 6 14 10 25 10 25
-1 0 -8 -4 -15 -9z"/>
<path d="M1358 603 c7 -3 16 -2 19 1 4 3 -2 6 -13 5 -11 0 -14 -3 -6 -6z"/>
<path d="M959 583 c-13 -16 -12 -17 4 -4 16 13 21 21 13 21 -2 0 -10 -8 -17
-17z"/>
<path d="M1554 578 l-19 -23 23 19 c21 18 27 26 19 26 -2 0 -12 -10 -23 -22z"/>
<path d="M80 576 c0 -2 8 -10 18 -17 15 -13 16 -12 3 4 -13 16 -21 21 -21 13z"/>
<path d="M631 564 c0 -11 3 -14 6 -6 3 7 2 16 -1 19 -3 4 -6 -2 -5 -13z"/>
<path d="M310 566 c0 -3 9 -10 20 -16 11 -6 20 -8 20 -6 0 3 -9 10 -20 16 -11
6 -20 8 -20 6z"/>
<path d="M919 553 c-13 -16 -12 -17 4 -4 16 13 21 21 13 21 -2 0 -10 -8 -17
-17z"/>
<path d="M1519 533 c-13 -16 -12 -17 4 -4 16 13 21 21 13 21 -2 0 -10 -8 -17
-17z"/>
<path d="M130 510 c12 -16 24 -30 26 -30 3 0 -4 14 -16 30 -12 17 -24 30 -26
30 -3 0 4 -13 16 -30z"/>
<path d="M879 523 c-13 -16 -12 -17 4 -4 16 13 21 21 13 21 -2 0 -10 -8 -17
-17z"/>
<path d="M1083 495 c0 -27 2 -38 4 -22 2 15 2 37 0 50 -2 12 -4 0 -4 -28z"/>
<path d="M1364 518 l-19 -23 23 19 c21 18 27 26 19 26 -2 0 -12 -10 -23 -22z"/>
<path d="M282 510 c0 -14 2 -19 5 -12 2 6 2 18 0 25 -3 6 -5 1 -5 -13z"/>
<path d="M641 514 c0 -11 3 -14 6 -6 3 7 2 16 -1 19 -3 4 -6 -2 -5 -13z"/>
<path d="M105 490 c9 -16 18 -30 21 -30 2 0 -2 14 -11 30 -9 17 -18 30 -21 30
-2 0 2 -13 11 -30z"/>
<path d="M400 516 c0 -3 9 -10 20 -16 11 -6 20 -8 20 -6 0 3 -9 10 -20 16 -11
6 -20 8 -20 6z"/>
<path d="M834 488 l-19 -23 23 19 c21 18 27 26 19 26 -2 0 -12 -10 -23 -22z"/>
<path d="M1489 493 c-13 -16 -12 -17 4 -4 16 13 21 21 13 21 -2 0 -10 -8 -17
-17z"/>
<path d="M1314 478 l-19 -23 23 19 c21 18 27 26 19 26 -2 0 -12 -10 -23 -22z"/>
<path d="M651 464 c0 -11 3 -14 6 -6 3 7 2 16 -1 19 -3 4 -6 -2 -5 -13z"/>
<path d="M160 466 c0 -2 8 -10 18 -17 15 -13 16 -12 3 4 -13 16 -21 21 -21 13z"/>
<path d="M789 453 c-13 -16 -12 -17 4 -4 16 13 21 21 13 21 -2 0 -10 -8 -17
-17z"/>
<path d="M1459 453 c-13 -16 -12 -17 4 -4 16 13 21 21 13 21 -2 0 -10 -8 -17
-17z"/>
<path d="M1264 438 l-19 -23 23 19 c12 11 22 21 22 23 0 8 -8 2 -26 -19z"/>
<path d="M292 430 c0 -14 2 -19 5 -12 2 6 2 18 0 25 -3 6 -5 1 -5 -13z"/>
<path d="M749 423 c-13 -16 -12 -17 4 -4 9 7 17 15 17 17 0 8 -8 3 -21 -13z"/>
<path d="M190 426 c0 -2 8 -10 18 -17 15 -13 16 -12 3 4 -13 16 -21 21 -21 13z"/>
<path d="M560 426 c0 -3 9 -10 20 -16 11 -6 20 -8 20 -6 0 3 -9 10 -20 16 -11
6 -20 8 -20 6z"/>
<path d="M1429 413 c-13 -16 -12 -17 4 -4 9 7 17 15 17 17 0 8 -8 3 -21 -13z"/>
<path d="M661 404 c0 -11 3 -14 6 -6 3 7 2 16 -1 19 -3 4 -6 -2 -5 -13z"/>
<path d="M709 393 c-13 -16 -12 -17 4 -4 16 13 21 21 13 21 -2 0 -10 -8 -17
-17z"/>
<path d="M1209 393 c-13 -16 -12 -17 4 -4 16 13 21 21 13 21 -2 0 -10 -8 -17
-17z"/>
<path d="M1092 358 c-2 -42 -5 -48 -24 -49 -18 -1 -19 -2 -5 -6 15 -4 16 -7 5
-21 -11 -13 -9 -13 13 1 14 10 29 15 32 12 4 -3 5 -2 2 2 -3 3 1 13 8 22 10
14 10 14 -5 3 -15 -12 -17 -9 -21 35 l-3 48 -2 -47z"/>
<path d="M220 386 c0 -2 8 -10 18 -17 15 -13 16 -12 3 4 -13 16 -21 21 -21 13z"/>
<path d="M1399 373 c-13 -16 -12 -17 4 -4 16 13 21 21 13 21 -2 0 -10 -8 -17
-17z"/>
<path d="M190 377 c0 -2 15 -16 33 -33 l32 -29 -29 33 c-28 30 -36 37 -36 29z"/>
<path d="M302 360 c0 -14 2 -19 5 -12 2 6 2 18 0 25 -3 6 -5 1 -5 -13z"/>
<path d="M664 360 c7 -8 19 -24 25 -35 l13 -20 -8 20 c-3 11 -6 27 -6 35 0 9
-8 16 -18 16 -16 0 -17 -3 -6 -16z"/>
<path d="M1154 348 l-19 -23 23 19 c12 11 22 21 22 23 0 8 -8 2 -26 -19z"/>
<path d="M718 353 c6 -2 18 -2 25 0 6 3 1 5 -13 5 -14 0 -19 -2 -12 -5z"/>
<path d="M250 346 c0 -2 8 -10 18 -17 15 -13 16 -12 3 4 -13 16 -21 21 -21 13z"/>
<path d="M788 343 c6 -2 18 -2 25 0 6 3 1 5 -13 5 -14 0 -19 -2 -12 -5z"/>
<path d="M858 333 c6 -2 18 -2 25 0 6 3 1 5 -13 5 -14 0 -19 -2 -12 -5z"/>
<path d="M1359 323 c-13 -16 -12 -17 4 -4 16 13 21 21 13 21 -2 0 -10 -8 -17
-17z"/>
<path d="M928 323 c7 -3 16 -2 19 1 4 3 -2 6 -13 5 -11 0 -14 -3 -6 -6z"/>
<path d="M988 313 c6 -2 18 -2 25 0 6 3 1 5 -13 5 -14 0 -19 -2 -12 -5z"/>
<path d="M280 303 c0 -5 10 -19 23 -30 28 -26 177 -125 177 -118 0 2 -25 21
-55 41 -30 20 -53 40 -51 43 3 4 -9 13 -25 20 -19 8 -29 20 -30 34 0 12 -3 16
-6 9 -4 -10 -8 -10 -19 -1 -8 6 -14 7 -14 2z"/>
<path d="M1326 293 c2 -7 -1 -13 -6 -13 -5 0 -11 -9 -15 -19 -3 -11 -15 -23
-26 -26 -11 -4 -19 -9 -16 -11 9 -10 37 10 63 44 15 19 23 32 17 29 -6 -4 -13
-4 -16 0 -2 5 -2 2 -1 -4z"/>
<path d="M1029 253 c-13 -16 -12 -17 4 -4 16 13 21 21 13 21 -2 0 -10 -8 -17
-17z"/>
<path d="M975 214 l-30 -26 33 22 c17 12 32 23 32 26 0 7 -4 5 -35 -22z"/>
<path d="M919 173 c-13 -16 -12 -17 4 -4 16 13 21 21 13 21 -2 0 -10 -8 -17
-17z"/>
<path d="M855 129 c-32 -24 -47 -29 -72 -25 -18 2 -33 1 -33 -5 0 -5 20 -9 45
-9 25 0 45 4 45 10 0 5 6 8 13 6 6 -1 8 -1 3 2 -4 2 5 15 20 28 42 34 26 29
-21 -7z"/>
<path d="M498 138 c5 -5 16 -8 23 -6 8 3 3 7 -10 11 -17 4 -21 3 -13 -5z"/>
<path d="M568 123 c7 -3 16 -2 19 1 4 3 -2 6 -13 5 -11 0 -14 -3 -6 -6z"/>
<path d="M628 113 c6 -2 18 -2 25 0 6 3 1 5 -13 5 -14 0 -19 -2 -12 -5z"/>
<path d="M698 103 c7 -3 16 -2 19 1 4 3 -2 6 -13 5 -11 0 -14 -3 -6 -6z"/>
</g>
</svg>
